<?xml version="1.0" standalone="no"?><!DOCTYPE svg PUBLIC "-//W3C//DTD SVG 1.1//EN" "http://www.w3.org/Graphics/SVG/1.1/DTD/svg11.dtd"><svg t="1631778521716" class="icon" viewBox="0 0 1198 1024" version="1.1" xmlns="http://www.w3.org/2000/svg" p-id="8562" xmlns:xlink="http://www.w3.org/1999/xlink" width="233.984375" height="200"><defs><style type="text/css"></style></defs><path d="M884.593137 505.347818a37.386046 37.386046 0 1 0 0-74.455261H792.078515l101.069056-120.395741a37.386046 37.386046 0 0 0-57.029561-47.841466l-118.811587 141.623412-117.544264-141.940243a37.386046 37.386046 0 0 0-57.029562 47.841466l101.069057 120.07891h-95.04927a37.386046 37.386046 0 1 0 0 74.455262h131.484823v56.712731h-133.068977a37.386046 37.386046 0 0 0 0 74.455261h131.484823v101.385887a37.386046 37.386046 0 1 0 74.455261 0v-101.385887h131.484823a37.386046 37.386046 0 1 0 0-74.455261h-131.484823v-56.07907h131.484823z" p-id="8563"></path><path d="M1113.661877 0.002535h-1077.225056a37.386046 37.386046 0 0 0-31.68309 19.009854 36.752384 36.752384 0 0 0-4.752464 18.376192 37.386046 37.386046 0 0 0 5.702957 19.960346l86.494835 138.138272-86.494835 138.455103a37.386046 37.386046 0 0 0 0 39.603862l86.178004 138.455103-86.178004 138.455103a37.386046 37.386046 0 0 0 0 39.603863l86.178004 138.455102-86.178004 138.455103a36.435553 36.435553 0 0 0-5.702957 19.643516 37.386046 37.386046 0 0 0 37.386046 37.386046h1077.225057a84.59385 84.59385 0 0 0 84.277019-84.277019v-855.443427A84.59385 84.59385 0 0 0 1113.661877 0.002535z m9.821758 939.720446a9.821758 9.821758 0 0 1-9.821758 9.821758H339.010329v-37.386046a37.386046 37.386046 0 1 0-74.772092 0V950.495231h-158.415449l63.366179-101.385887a37.386046 37.386046 0 0 0 0-39.603863l-87.762159-139.088764 86.494836-138.455103a37.386046 37.386046 0 0 0 0-39.603862l-86.494836-138.771934 86.178005-138.455103a37.386046 37.386046 0 0 0 0-39.603862l-63.36618-101.069057h158.41545v37.386046a37.386046 37.386046 0 0 0 74.772092 0V74.457796h776.235702a9.821758 9.821758 0 0 1 9.821758 9.821758v855.443427z" p-id="8564"></path><path d="M301.624283 554.773439a37.386046 37.386046 0 0 0-37.386046 37.386046v159.999604a37.386046 37.386046 0 0 0 74.772092 0v-159.999604a37.386046 37.386046 0 0 0-37.386046-37.386046z m0-319.999208a37.386046 37.386046 0 0 0-37.386046 37.069215v159.999604a37.386046 37.386046 0 1 0 74.772092 0V271.843446A37.386046 37.386046 0 0 0 301.624283 234.4574z" p-id="8565"></path></svg>