<?xml version="1.0" standalone="no"?><!DOCTYPE svg PUBLIC "-//W3C//DTD SVG 1.1//EN" "http://www.w3.org/Graphics/SVG/1.1/DTD/svg11.dtd"><svg class="icon" width="200px" height="200.00px" viewBox="0 0 1024 1024" version="1.1" xmlns="http://www.w3.org/2000/svg"><path fill="#333333" d="M748.683 767.065c51.54-47.357 89.016-110.194 104.787-181.958l3.495-15.903 14.914-6.535c20.879-9.148 34.646-29.805 34.646-52.994 0-23.19-13.767-43.846-34.646-52.995l-14.914-6.535-3.495-15.903c-34.955-159.058-176.537-274.267-341.55-274.267s-306.595 115.21-341.55 274.267l-3.495 15.903-14.914 6.535c-20.879 9.149-34.646 29.806-34.646 52.995 0 23.189 13.767 43.846 34.646 52.994l14.914 6.535 3.495 15.903c15.77 71.763 53.246 134.6 104.786 181.958-4.747-34.108 2.218-70.016 22.3-101.256 27.473-42.735 74.792-68.569 125.597-68.569h177.734c82.462 0 149.31 66.848 149.31 149.31 0 6.917-0.478 13.77-1.414 20.515zM627.3 907.007L511.92 981.18l-115.38-74.173C258.211 866.854 148.218 756.211 111.368 613.48c-35.48-21.803-58.043-60.74-58.043-103.805 0-43.065 22.563-82.002 58.043-103.805C158.006 225.229 321.8 95.985 511.92 95.985c190.12 0 353.914 129.244 400.552 309.885 35.48 21.803 58.043 60.74 58.043 103.805 0 43.064-22.563 82.002-58.043 103.805C875.622 756.21 765.63 866.854 627.3 907.007zM373.374 830.8c42.669 18.428 89.576 28.574 138.546 28.574 47.287 0 92.65-9.46 134.13-26.703 24.231-15.862 40.057-57.223 40.057-86.121 0-47.12-38.199-85.32-85.32-85.32H423.053a85.32 85.32 0 0 0-71.77 39.183c-24.813 38.598-15.04 103.483 22.091 130.387zM362.61 533.25c-23.56 0-42.66-19.1-42.66-42.66 0-23.56 19.1-42.66 42.66-42.66 23.56 0 42.66 19.1 42.66 42.66 0 23.56-19.1 42.66-42.66 42.66z m298.62 0c-23.56 0-42.66-19.1-42.66-42.66 0-23.56 19.1-42.66 42.66-42.66 23.56 0 42.66 19.1 42.66 42.66 0 23.56-19.1 42.66-42.66 42.66z" /></svg>