<?xml version="1.0" standalone="no"?><!DOCTYPE svg PUBLIC "-//W3C//DTD SVG 1.1//EN" "http://www.w3.org/Graphics/SVG/1.1/DTD/svg11.dtd"><svg class="icon" width="200px" height="200.00px" viewBox="0 0 1024 1024" version="1.1" xmlns="http://www.w3.org/2000/svg"><path fill="#333333" d="M793.6 85.333c54.356 0 99.81 39.95 102.293 91.55l0.107 4.45v661.334c0 52.243-43.944 93.643-97.763 95.902l-4.637 0.098H230.4c-54.356 0-99.81-39.95-102.293-91.55l-0.107-4.45V181.333c0-52.243 43.944-93.643 97.763-95.902l4.637-0.098h563.2zM512 330.667c-135.938 0-243.427-43.408-320-129.962v641.962c0 16.064 14.852 30.41 34.995 31.877l3.405 0.123h563.2c20.702 0 36.643-13.502 38.264-29.34l0.136-2.66 0.013-641.983C755.444 287.252 647.949 330.667 512 330.667z m84.04 73.372l45.254 45.255-84.067 84.04H640v64h-96V640h96v64h-96v85.333h-64V704h-96v-64h96v-42.667h-96v-64h82.752l-84.046-84.039 45.255-45.255L512 488.085l84.04-84.046z m195.65-254.69l-559.384-0.006C296.762 227.657 389.067 266.667 512 266.667c119.607 0 210.222-36.928 274.402-111.055l5.287-6.263z" /></svg>