<?xml version="1.0" standalone="no"?><!DOCTYPE svg PUBLIC "-//W3C//DTD SVG 1.1//EN" "http://www.w3.org/Graphics/SVG/1.1/DTD/svg11.dtd"><svg class="icon" width="200px" height="200.00px" viewBox="0 0 1024 1024" version="1.1" xmlns="http://www.w3.org/2000/svg"><path fill="#333333" d="M479.925 639.9v-42.66H383.94v-63.99h82.732l-84.026-84.026 45.248-45.248 84.026 84.026 84.026-84.026 45.248 45.248-84.026 84.026H639.9v63.99h-95.985v42.66H639.9v63.99h-95.985v85.32h-63.99v-85.32H383.94V639.9h95.985z m319.95-554.58c53.011 0 95.985 42.974 95.985 95.985v661.23c0 53.011-42.974 95.985-95.985 95.985h-575.91c-53.011 0-95.985-42.974-95.985-95.985v-661.23c0-53.011 42.974-95.985 95.985-95.985h575.91z m-575.91 63.99c-16.63 0-30.298 12.689-31.849 28.914l-0.146 664.311c0 16.63 12.689 30.298 28.914 31.849l578.991 0.146c16.63 0 30.298-12.689 31.849-28.914l0.146-664.311c0-16.63-12.689-30.298-28.914-31.849l-578.991-0.146zM426.6 213.3h170.64v63.99H426.6V213.3z" /></svg>