<?xml version="1.0" standalone="no"?><!DOCTYPE svg PUBLIC "-//W3C//DTD SVG 1.1//EN" "http://www.w3.org/Graphics/SVG/1.1/DTD/svg11.dtd"><svg class="icon" width="200px" height="200.00px" viewBox="0 0 1024 1024" version="1.1" xmlns="http://www.w3.org/2000/svg"><path fill="#333333" d="M173.412 186.461l319.95-96.954a63.99 63.99 0 0 1 37.116 0l319.95 96.954c26.98 8.176 45.432 33.048 45.432 61.24V597.24c0 159.811-128.579 272.805-375.522 340.153l-8.418 2.296-8.418-2.296C256.559 870.045 127.98 757.05 127.98 597.24V247.701c0-28.192 18.451-53.064 45.432-61.24zM191.97 597.24c0 123.006 103.373 215.412 319.95 276.09 216.577-60.678 319.95-153.084 319.95-276.09V247.701l-319.95-96.954L191.97 247.7V597.24z m176.665-223.873c38.863-38.862 98.207-44.76 143.285-17.692 45.078-27.067 104.422-21.17 143.285 17.692 43.272 43.272 45.673 111.939 7.203 158.029l0.338 0.338L511.92 682.56 361.094 531.734l0.338-0.338c-38.47-46.09-36.069-114.757 7.203-158.029zM511.92 592.064l99.79-99.79 1.572-1.882c17.538-21.012 16.215-52.237-3.325-71.777-17.4-17.4-44.348-20.538-65.096-8.08l-32.941 19.78-32.941-19.78c-20.748-12.458-47.695-9.32-65.096 8.08-19.54 19.54-20.863 50.765-3.325 71.777l1.571 1.882 99.791 99.79z" /></svg>