<?xml version="1.0" standalone="no"?><!DOCTYPE svg PUBLIC "-//W3C//DTD SVG 1.1//EN" "http://www.w3.org/Graphics/SVG/1.1/DTD/svg11.dtd"><svg t="1630135854220" class="icon" viewBox="0 0 1024 1024" version="1.1" xmlns="http://www.w3.org/2000/svg" p-id="2350" xmlns:xlink="http://www.w3.org/1999/xlink" width="200" height="200"><defs><style type="text/css"></style></defs><path d="M862 165.7c-96.7-96.7-223.3-145-350-145S258.6 69 162 165.7c-193.3 193.3-193.3 506.7 0 700 96.7 96.7 223.3 145 350 145s253.4-48.3 350-145c193.3-193.2 193.3-506.7 0-700z m-28.3 671.8c-43.4 43.5-94.1 77.1-150.5 100-54.5 22.1-112.1 33.3-171.2 33.3-59.1 0-116.7-11.2-171.2-33.3-56.4-22.9-107-56.5-150.5-100s-77.1-94.1-100-150.5C68.2 632.5 57 574.9 57 515.8c0-59.1 11.2-116.7 33.3-171.2 22.9-56.4 56.5-107 99.9-150.5 43.5-43.5 94.1-77.1 150.5-100C395.2 72 452.8 60.8 512 60.8c59.1 0 116.7 11.2 171.2 33.3 56.4 22.9 107 56.5 150.5 100 43.5 43.4 77.1 94.1 100 150.5 22.1 54.4 33.3 112 33.3 171.2 0 59.1-11.2 116.7-33.3 171.2-22.9 56.4-56.6 107-100 150.5z" fill="#999999" p-id="2351"></path><path d="M676.9 626.4c0 11-9 20-20 20H532v92.5c0 11-9 20-20 20-11.1 0-20-9-20-20v-92.5H367c-11 0-20-9-20-20s9-20 20-20h125v-97.3H367c-11 0-20-9-20-20s9-20 20-20h125v-12.6c-8.2-2.7-15.8-7.3-22.3-13.8l-92.6-92.6c-7.8-7.8-7.8-20.5 0-28.3s20.5-7.8 28.3 0l92.6 92.6c6.6 6.6 17.4 6.6 24.1 0l0.1-0.1 96.5-95.4c7.9-7.8 20.5-7.7 28.3 0.2 7.8 7.8 7.7 20.5-0.2 28.3l-96.4 95.4c-5.4 5.4-11.7 9.5-18.3 12.3v14.1H657c11 0 20 9 20 20s-9 20-20 20H532v97.3h124.9c11-0.1 20 8.9 20 19.9z" fill="#999999" p-id="2352"></path></svg>