<?xml version="1.0" standalone="no"?><!DOCTYPE svg PUBLIC "-//W3C//DTD SVG 1.1//EN" "http://www.w3.org/Graphics/SVG/1.1/DTD/svg11.dtd"><svg t="1631966913158" class="icon" viewBox="0 0 1024 1024" version="1.1" xmlns="http://www.w3.org/2000/svg" p-id="2565" xmlns:xlink="http://www.w3.org/1999/xlink" width="200" height="200"><defs><style type="text/css"></style></defs><path d="M69.457537 883.959431a31.27985 31.27985 0 0 1-29.82005-40.684978l82.551169-261.393462a31.268707 31.268707 0 0 1 51.928786-12.703609l173.214818 173.225961a31.268707 31.268707 0 0 1-11.912419 51.672485L79.653855 882.243329a31.346711 31.346711 0 0 1-10.196318 1.716102z m96.8483-234.136421L117.976407 802.89035l149.768859-51.639055z" p-id="2566"></path><path d="M325.223523 795.780786a31.201846 31.201846 0 0 1-22.108736-9.137683L129.888826 613.405998a31.290994 31.290994 0 0 1 0-44.228616l437.750751-437.773038a31.257563 31.257563 0 0 1 44.23976 0L785.071867 304.663736a31.257563 31.257563 0 0 1 0 44.217472L347.33226 786.643103a31.201846 31.201846 0 0 1-22.108737 9.137683z m-128.997344-204.483524l128.997344 128.997345 393.522135-393.522135-128.997345-129.008488z" p-id="2567"></path><path d="M762.963131 358.041179a31.27985 31.27985 0 0 1-22.108737-9.159971L567.639577 175.655247a31.257563 31.257563 0 0 1 0-44.217472l103.300396-103.322683a95.979106 95.979106 0 0 1 135.739172 0l81.693118 81.704261a96.079398 96.079398 0 0 1 0 135.739172l-103.322683 103.322683a31.201846 31.201846 0 0 1-22.086449 9.159971zM633.965786 153.546511l128.997345 129.008488 81.213946-81.213946a33.430549 33.430549 0 0 0 0-47.304227l-81.693118-81.693118a33.430549 33.430549 0 0 0-47.304226 0zM966.655465 1024h-909.31093a31.268707 31.268707 0 1 1 0-62.537413h909.31093a31.268707 31.268707 0 0 1 0 62.537413z" p-id="2568"></path></svg>