<?xml version="1.0" standalone="no"?><!DOCTYPE svg PUBLIC "-//W3C//DTD SVG 1.1//EN" "http://www.w3.org/Graphics/SVG/1.1/DTD/svg11.dtd"><svg class="icon" width="200px" height="200.00px" viewBox="0 0 1024 1024" version="1.1" xmlns="http://www.w3.org/2000/svg"><path fill="#333333" d="M517.391 605.84l-106.65-63.99 108.19-135.237 49.968 39.974-62.45 78.063 106.65 63.99-108.19 135.237-49.968-39.974 62.45-78.063zM127.98 577.87c0-106.022 42.974-202.007 112.453-271.487l203.615-203.615c37.485-37.484 98.26-37.484 135.744 0l203.615 203.615c69.48 69.48 112.453 165.465 112.453 271.487 0 212.044-171.896 383.94-383.94 383.94S127.98 789.914 127.98 577.87z m361.316-429.854L285.681 351.631c-59.656 59.657-93.711 140.17-93.711 226.239 0 176.703 143.246 319.95 319.95 319.95 176.704 0 319.95-143.247 319.95-319.95 0-86.068-34.055-166.582-93.711-226.239L534.544 148.016c-12.495-12.495-32.753-12.495-45.248 0z" /></svg>