<?xml version="1.0" standalone="no"?><!DOCTYPE svg PUBLIC "-//W3C//DTD SVG 1.1//EN" "http://www.w3.org/Graphics/SVG/1.1/DTD/svg11.dtd"><svg class="icon" width="200px" height="200.00px" viewBox="0 0 1024 1024" version="1.1" xmlns="http://www.w3.org/2000/svg"><path fill="#333333" d="M426.62 256.64v-63.99h170.64v63.99H426.62z m85.32 554.58c-35.341 0-63.99-28.649-63.99-63.99 0-35.34 28.649-63.99 63.99-63.99 35.34 0 63.99 28.65 63.99 63.99 0 35.341-28.65 63.99-63.99 63.99zM831.89 299.3V181.985c0-17.67-14.325-31.995-31.995-31.995h-575.91c-17.67 0-31.995 14.325-31.995 31.995V299.3h639.9z m0 543.915V363.29h-639.9v479.925c0 17.67 14.325 31.995 31.995 31.995h575.91c17.67 0 31.995-14.325 31.995-31.995zM799.895 86c53.011 0 95.985 42.974 95.985 95.985v661.23c0 53.011-42.974 95.984-95.985 95.984h-575.91c-53.01 0-95.985-42.973-95.985-95.984v-661.23C128 128.975 170.974 86 223.985 86h575.91z" /></svg>