<?xml version="1.0" standalone="no"?><!DOCTYPE svg PUBLIC "-//W3C//DTD SVG 1.1//EN" "http://www.w3.org/Graphics/SVG/1.1/DTD/svg11.dtd"><svg class="icon" width="200px" height="200.00px" viewBox="0 0 1024 1024" version="1.1" xmlns="http://www.w3.org/2000/svg"><path fill="#333333" d="M479.925 511.92v-42.66H383.94v-63.99h82.732l-84.026-84.026 45.248-45.248 84.026 84.026 84.026-84.026 45.248 45.248-84.026 84.026H639.9v63.99h-95.985v42.66H639.9v63.99h-95.985v85.32h-63.99v-85.32H383.94v-63.99h95.985z m-255.96-426.6h575.91c53.011 0 95.985 42.974 95.985 95.985v696.926c0 21.38 0 84.714-90.4 58.285l-130.803-59.27-139.434 54.521a63.99 63.99 0 0 1-46.606 0l-139.434-54.52-130.802 59.27c-90.401 26.928-90.401-36.905-90.401-58.286V181.305c0-53.011 42.974-95.985 95.985-95.985z m0 63.99c-17.67 0-31.995 14.325-31.995 31.995v696.926l130.802-59.27a63.99 63.99 0 0 1 49.713-1.31l139.435 54.52 139.435-54.52a63.99 63.99 0 0 1 49.713 1.31l130.802 59.27V181.305c0-17.67-14.325-31.995-31.995-31.995h-575.91z" /></svg>